<svg width="27" height="26" viewBox="0 0 27 26" fill="none" xmlns="http://www.w3.org/2000/svg">
<path d="M23.4379 0H3.00935C2.27053 0 1.56197 0.293494 1.03955 0.815917C0.517127 1.33834 0.223633 2.0469 0.223633 2.78571L0.223633 23.2143C0.223633 23.9531 0.517127 24.6617 1.03955 25.1841C1.56197 25.7065 2.27053 26 3.00935 26H10.9747V17.1606H7.3185V13H10.9747V9.82893C10.9747 6.22201 13.1221 4.22964 16.411 4.22964C17.986 4.22964 19.6331 4.51054 19.6331 4.51054V8.05071H17.8183C16.0302 8.05071 15.4725 9.16036 15.4725 10.2984V13H19.4642L18.8258 17.1606H15.4725V26H23.4379C24.1767 26 24.8853 25.7065 25.4077 25.1841C25.9301 24.6617 26.2236 23.9531 26.2236 23.2143V2.78571C26.2236 2.0469 25.9301 1.33834 25.4077 0.815917C24.8853 0.293494 24.1767 0 23.4379 0Z" fill="black"/>
</svg>
