<svg width="27" height="26" viewBox="0 0 27 26" fill="none" xmlns="http://www.w3.org/2000/svg">
<path d="M13.2265 6.33393C9.53752 6.33393 6.56195 9.31016 6.56195 13C6.56195 16.6898 9.53752 19.6661 13.2265 19.6661C16.9155 19.6661 19.8911 16.6898 19.8911 13C19.8911 9.31016 16.9155 6.33393 13.2265 6.33393ZM13.2265 17.3338C10.8426 17.3338 8.89368 15.3903 8.89368 13C8.89368 10.6097 10.8368 8.66618 13.2265 8.66618C15.6163 8.66618 17.5594 10.6097 17.5594 13C17.5594 15.3903 15.6105 17.3338 13.2265 17.3338ZM21.7182 6.06125C21.7182 6.92569 21.0222 7.61609 20.1637 7.61609C19.2995 7.61609 18.6092 6.91989 18.6092 6.06125C18.6092 5.20261 19.3053 4.50642 20.1637 4.50642C21.0222 4.50642 21.7182 5.20261 21.7182 6.06125ZM26.1323 7.6393C26.0337 5.55651 25.558 3.71159 24.0326 2.19157C22.5129 0.671538 20.6684 0.195805 18.586 0.0913757C16.4399 -0.0304585 10.0073 -0.0304585 7.86122 0.0913757C5.7847 0.190003 3.9402 0.665737 2.41471 2.18576C0.889221 3.70579 0.419394 5.55071 0.314988 7.63349C0.193181 9.7801 0.193181 16.2141 0.314988 18.3607C0.413594 20.4435 0.889221 22.2884 2.41471 23.8084C3.9402 25.3285 5.7789 25.8042 7.86122 25.9086C10.0073 26.0305 16.4399 26.0305 18.586 25.9086C20.6684 25.81 22.5129 25.3343 24.0326 23.8084C25.5522 22.2884 26.0279 20.4435 26.1323 18.3607C26.2541 16.2141 26.2541 9.7859 26.1323 7.6393ZM23.3597 20.664C22.9073 21.8011 22.0314 22.6771 20.8888 23.1354C19.1777 23.8142 15.1174 23.6576 13.2265 23.6576C11.3356 23.6576 7.26959 23.8084 5.56429 23.1354C4.42743 22.6829 3.55157 21.8069 3.09335 20.664C2.41471 18.9525 2.57132 14.8913 2.57132 13C2.57132 11.1087 2.42051 7.04173 3.09335 5.33605C3.54577 4.19893 4.42163 3.32288 5.56429 2.86455C7.27539 2.18576 11.3356 2.34241 13.2265 2.34241C15.1174 2.34241 19.1835 2.19157 20.8888 2.86455C22.0256 3.31708 22.9015 4.19313 23.3597 5.33605C24.0384 7.04753 23.8817 11.1087 23.8817 13C23.8817 14.8913 24.0384 18.9583 23.3597 20.664Z" fill="black"/>
</svg>
