<svg width="31" height="26" viewBox="0 0 31 26" fill="none" xmlns="http://www.w3.org/2000/svg">
<path d="M27.1399 6.47966C27.159 6.76403 27.159 7.04845 27.159 7.33281C27.159 16.0062 20.9725 26 9.66529 26C6.18176 26 2.94573 24.9234 0.223633 23.0547C0.718576 23.1156 1.19442 23.1359 1.7084 23.1359C4.58273 23.1359 7.22872 22.1 9.34168 20.3328C6.63862 20.2719 4.37338 18.3828 3.5929 15.7828C3.97365 15.8437 4.35433 15.8843 4.75412 15.8843C5.30613 15.8843 5.85821 15.8031 6.37213 15.6609C3.55488 15.0515 1.44186 12.4109 1.44186 9.22186V9.14064C2.26036 9.62815 3.21222 9.93283 4.22103 9.97341C2.56493 8.79526 1.47995 6.78435 1.47995 4.50933C1.47995 3.2906 1.78446 2.17341 2.31749 1.19841C5.34416 5.17965 9.89369 7.77961 14.9952 8.06403C14.9 7.57653 14.8429 7.06877 14.8429 6.56095C14.8429 2.94528 17.584 0 20.9914 0C22.7617 0 24.3607 0.792185 25.4838 2.07187C26.8733 1.78751 28.2058 1.23905 29.3861 0.487504C28.9292 2.01098 27.9584 3.29066 26.683 4.10311C27.9204 3.96099 29.1196 3.59528 30.2236 3.08752C29.3862 4.38747 28.3392 5.54524 27.1399 6.47966Z" fill="black"/>
</svg>
