<svg width="36" height="26" viewBox="0 0 36 26" fill="none" xmlns="http://www.w3.org/2000/svg">
<path d="M34.4923 4.06812C34.0897 2.46682 32.9038 1.20568 31.3979 0.777698C28.6684 0 17.7236 0 17.7236 0C17.7236 0 6.77888 0 4.04936 0.777698C2.54351 1.20575 1.35752 2.46682 0.954992 4.06812C0.223633 6.97057 0.223633 13.0263 0.223633 13.0263C0.223633 13.0263 0.223633 19.082 0.954992 21.9844C1.35752 23.5857 2.54351 24.7943 4.04936 25.2223C6.77888 26 17.7236 26 17.7236 26C17.7236 26 28.6684 26 31.3979 25.2223C32.9038 24.7943 34.0897 23.5857 34.4923 21.9844C35.2236 19.082 35.2236 13.0263 35.2236 13.0263C35.2236 13.0263 35.2236 6.97057 34.4923 4.06812ZM14.1441 18.5244V7.52815L23.2918 13.0264L14.1441 18.5244Z" fill="black"/>
</svg>
